<?xml version="1.0" encoding="UTF-8" standalone="no"?>
<!-- Created with Inkscape (http://www.inkscape.org/) -->

<svg
   width="80mm"
   height="80.000008mm"
   viewBox="0 0 80 80.000008"
   version="1.1"
   id="svg5"
   xml:space="preserve"
   inkscape:export-filename="xdg-data-autoremove.svg"
   inkscape:export-xdpi="96"
   inkscape:export-ydpi="96"
   xmlns:inkscape="http://www.inkscape.org/namespaces/inkscape"
   xmlns:sodipodi="http://sodipodi.sourceforge.net/DTD/sodipodi-0.dtd"
   xmlns="http://www.w3.org/2000/svg"
   xmlns:svg="http://www.w3.org/2000/svg"><sodipodi:namedview
     id="namedview7"
     pagecolor="#ffffff"
     bordercolor="#000000"
     borderopacity="0.25"
     inkscape:showpageshadow="2"
     inkscape:pageopacity="0.0"
     inkscape:pagecheckerboard="0"
     inkscape:deskcolor="#d1d1d1"
     inkscape:document-units="mm"
     showgrid="false"
     showguides="false" /><defs
     id="defs2" /><g
     inkscape:label="Layer 1"
     inkscape:groupmode="layer"
     id="layer1"
     transform="translate(-50.000001,-50.000002)"><circle
       style="fill:#50be8c;fill-opacity:1;stroke-width:0.271775"
       id="path163"
       cx="90"
       cy="90"
       r="40" /><g
       style="fill:#ffffff"
       id="g1325"
       transform="matrix(2.0381576,0,0,2.059079,65.542109,65.291052)"><path
         d="M 9,21 H 21"
         stroke="#1c274c"
         stroke-width="1.5"
         stroke-linecap="round"
         id="path1315"
         style="fill:#4343d5;fill-opacity:1;stroke:#d5d5d5;stroke-opacity:1"
         inkscape:label="path1315"
         inkscape:highlight-color="#e580ee" /><path
         d="m 5.50506,11.4096 0.53033,0.5303 z M 3,14.9522 H 2.25 Z m 9.5904,3.5427 -0.5303,-0.5303 z M 9.04776,21 v 0.75 z M 11.4096,5.50506 10.8792,4.97473 Z M 13.241,17.8444 c 0.2929,0.2929 0.7678,0.2929 1.0607,0 0.2929,-0.2929 0.2929,-0.7678 0,-1.0607 z M 7.21629,9.69832 c -0.29289,-0.29289 -0.76777,-0.29289 -1.06066,0 -0.29289,0.2929 -0.29289,0.76778 0,1.06068 z M 16.073,16.073 c 0.2929,-0.2929 0.2929,-0.7677 0,-1.0606 -0.2929,-0.2929 -0.7677,-0.2929 -1.0606,0 z m 2.3946,-4.5171 c -0.2917,0.294 -0.2899,0.7689 0.0042,1.0606 0.294,0.2918 0.7689,0.2899 1.0606,-0.0041 z M 6.03539,11.9399 11.9399,6.03539 10.8792,4.97473 4.97473,10.8792 Z m 0,6.0247 C 5.18538,17.1146 4.60235,16.5293 4.22253,16.0315 3.85592,15.551 3.75,15.2411 3.75,14.9522 h -1.5 c 0,0.7488 0.31159,1.3752 0.78,1.9892 0.45521,0.5966 1.1247,1.2638 1.94473,2.0839 z M 4.97473,10.8792 C 4.1547,11.6993 3.48521,12.3665 3.03,12.9631 2.56159,13.577 2.25,14.2035 2.25,14.9522 h 1.5 c 0,-0.2889 0.10592,-0.5987 0.47253,-1.0792 0.37982,-0.4978 0.96285,-1.0831 1.81286,-1.9331 z m 7.08537,7.0854 c -0.85,0.85 -1.4353,1.4331 -1.9331,1.8129 C 9.64651,20.1441 9.33665,20.25 9.04776,20.25 v 1.5 c 0.74873,0 1.37524,-0.3116 1.98914,-0.78 0.5966,-0.4552 1.2639,-1.1247 2.0839,-1.9447 z m -7.08537,1.0607 c 0.82003,0.82 1.48728,1.4895 2.0839,1.9447 0.61393,0.4684 1.24039,0.78 1.98913,0.78 v -1.5 C 8.75886,20.25 8.449,20.1441 7.9685,19.7775 7.47069,19.3977 6.88541,18.8146 6.03539,17.9646 Z M 17.9646,6.03539 c 0.85,0.85002 1.4331,1.4353 1.8129,1.93311 0.3666,0.4805 0.4725,0.79036 0.4725,1.07926 h 1.5 C 21.75,8.29902 21.4384,7.67256 20.97,7.05863 20.5148,6.46201 19.8453,5.79476 19.0253,4.97473 Z M 19.0253,4.97473 C 18.2052,4.1547 17.538,3.48521 16.9414,3.03 16.3274,2.56159 15.701,2.25 14.9522,2.25 v 1.5 c 0.2889,0 0.5988,0.10592 1.0793,0.47253 0.4978,0.37982 1.0831,0.96285 1.9331,1.81286 z M 11.9399,6.03539 C 12.7899,5.18538 13.3752,4.60235 13.873,4.22253 14.3535,3.85592 14.6633,3.75 14.9522,3.75 v -1.5 c -0.7487,0 -1.3752,0.31159 -1.9891,0.78 -0.5966,0.45521 -1.2638,1.1247 -2.0839,1.94473 z M 14.3017,16.7837 7.21629,9.69832 6.15563,10.759 13.241,17.8444 Z m 0.7107,-1.7713 -2.9523,2.9522 1.0607,1.0607 2.9522,-2.9523 z m 4.52,-2.4 c 0.6608,-0.666 1.206,-1.2365 1.5816,-1.772 0.3883,-0.5535 0.636,-1.12529 0.636,-1.79264 h -1.5 c 0,0.25979 -0.0856,0.53431 -0.364,0.93124 -0.2911,0.415 -0.7459,0.8991 -1.4184,1.5769 z"
         fill="#1c274c"
         id="path1313"
         style="fill:#ffffff" /></g></g></svg>
